<svg data-v-423bf9ae="" xmlns="http://www.w3.org/2000/svg" viewBox="0 0 243.72180386431722 60" class="font"><!----><!----><!----><g data-v-423bf9ae="" id="2d3631c6-2997-4b04-8dc5-68dd4be57b08" fill="#E7E7E6" transform="matrix(5.639098067841383,0,0,5.639098067841383,-4.567669965206733,-16.97368536884251)"><path d="M4.34 6.40Q5.64 6.40 6.31 7.27Q6.99 8.13 6.99 9.60L6.99 9.60L6.99 13.51L5.25 13.51L5.25 9.74Q5.25 8.76 4.92 8.29Q4.59 7.83 3.86 7.83L3.86 7.83Q3.07 7.83 2.55 8.43L2.55 8.43L2.55 13.51L0.81 13.51L0.81 6.51L2.44 6.51L2.46 7Q3.35 6.40 4.34 6.40L4.34 6.40ZM11.91 13.65Q10.70 13.65 9.84 13.15Q8.97 12.66 8.55 11.82Q8.12 10.99 8.12 9.97L8.12 9.97Q8.12 8.99 8.53 8.18Q8.93 7.36 9.70 6.88Q10.47 6.40 11.54 6.40L11.54 6.40Q12.52 6.40 13.20 6.80Q13.87 7.21 14.22 7.90Q14.56 8.58 14.56 9.44L14.56 9.44Q14.56 9.86 14.45 10.39L14.45 10.39L9.93 10.39Q10.07 11.31 10.65 11.77Q11.24 12.22 12.07 12.22L12.07 12.22Q13.20 12.22 14.17 11.65L14.17 11.65L14.25 13.12Q13.80 13.36 13.21 13.50Q12.61 13.65 11.91 13.65L11.91 13.65ZM9.97 9.21L12.80 9.21Q12.80 8.67 12.49 8.25Q12.18 7.83 11.54 7.83L11.54 7.83Q10.89 7.83 10.50 8.20Q10.11 8.58 9.97 9.21L9.97 9.21ZM15.02 13.51L17.35 10.01L15.02 6.51L17.09 6.51L18.37 8.54L19.54 6.51L21.62 6.51L19.29 10.01L21.62 13.51L19.54 13.51L18.27 11.48L17.09 13.51L15.02 13.51ZM24.85 13.65Q23.93 13.65 23.45 13.11Q22.97 12.57 22.97 11.82L22.97 11.82L22.97 7.94L21.98 7.94L22.13 6.51L22.97 6.51L22.97 4.97L24.71 4.79L24.71 6.51L26.25 6.51L26.25 7.94L24.71 7.94L24.71 11.10Q24.71 11.66 24.77 11.88Q24.84 12.10 25.04 12.16Q25.24 12.22 25.77 12.22L25.77 12.22L26.25 12.22L26.10 13.65L24.85 13.65ZM29.18 13.65Q28.28 13.65 27.83 13.14Q27.38 12.63 27.38 11.82L27.38 11.82L27.38 3.01L29.12 3.01L29.12 11.10Q29.12 11.66 29.18 11.89Q29.25 12.12 29.41 12.17Q29.57 12.22 29.96 12.22L29.96 12.22L29.81 13.65L29.18 13.65ZM31.07 5.45L31.07 3.71L32.80 3.71L32.80 5.45L31.07 5.45ZM31.07 13.51L31.07 6.51L32.80 6.51L32.80 13.51L31.07 13.51ZM36.41 13.65Q35.74 13.65 35.19 13.52Q34.64 13.40 34.05 13.13L34.05 13.13L34.20 11.65Q34.79 12.00 35.30 12.17Q35.81 12.35 36.36 12.35L36.36 12.35Q37.42 12.35 37.42 11.65L37.42 11.65Q37.42 11.27 37.14 11.07Q36.86 10.86 36.13 10.58L36.13 10.58Q35.10 10.21 34.61 9.72Q34.12 9.24 34.12 8.41L34.12 8.41Q34.12 7.50 34.82 6.94Q35.52 6.37 36.71 6.37L36.71 6.37Q37.90 6.37 38.88 6.92L38.88 6.92L38.72 8.40Q38.19 8.04 37.72 7.84Q37.25 7.64 36.74 7.64L36.74 7.64Q36.29 7.64 36.04 7.83Q35.80 8.01 35.80 8.34L35.80 8.34Q35.80 8.61 35.95 8.78Q36.09 8.95 36.36 9.08Q36.62 9.21 37.24 9.45L37.24 9.45Q38.26 9.84 38.71 10.31Q39.16 10.78 39.16 11.56L39.16 11.56Q39.16 12.56 38.44 13.10Q37.73 13.65 36.41 13.65L36.41 13.65ZM42.63 13.65Q41.71 13.65 41.23 13.11Q40.75 12.57 40.75 11.82L40.75 11.82L40.75 7.94L39.76 7.94L39.91 6.51L40.75 6.51L40.75 4.97L42.49 4.79L42.49 6.51L44.03 6.51L44.03 7.94L42.49 7.94L42.49 11.10Q42.49 11.66 42.55 11.88Q42.62 12.10 42.82 12.16Q43.02 12.22 43.55 12.22L43.55 12.22L44.03 12.22L43.88 13.65L42.63 13.65Z"></path></g><!----><!----></svg>